<?xml version="1.0" encoding="UTF-8" standalone="no"?>
<svg
   xmlns:dc="http://purl.org/dc/elements/1.1/"
   xmlns:cc="http://creativecommons.org/ns#"
   xmlns:rdf="http://www.w3.org/1999/02/22-rdf-syntax-ns#"
   xmlns:svg="http://www.w3.org/2000/svg"
   xmlns="http://www.w3.org/2000/svg"
   xmlns:sodipodi="http://sodipodi.sourceforge.net/DTD/sodipodi-0.dtd"
   xmlns:inkscape="http://www.inkscape.org/namespaces/inkscape"
   width="954.40363mm"
   height="1020.048mm"
   viewBox="0 0 954.40363 1020.048"
   version="1.1"
   id="svg8"
   inkscape:version="1.0.2 (e86c870879, 2021-01-15, custom)"
   sodipodi:docname="architecture.svg">
  <defs
     id="defs2">
    <marker
       style="overflow:visible"
       id="marker2597"
       refX="0"
       refY="0"
       orient="auto"
       inkscape:stockid="Arrow1Mend"
       inkscape:isstock="true">
      <path
         transform="matrix(-0.4,0,0,-0.4,-4,0)"
         style="fill:#000000;fill-opacity:1;fill-rule:evenodd;stroke:#000000;stroke-width:1pt;stroke-opacity:1"
         d="M 0,0 5,-5 -12.5,0 5,5 Z"
         id="path2595" />
    </marker>
    <marker
       style="overflow:visible"
       id="marker2491"
       refX="0"
       refY="0"
       orient="auto"
       inkscape:stockid="Arrow1Mend"
       inkscape:isstock="true">
      <path
         transform="matrix(-0.4,0,0,-0.4,-4,0)"
         style="fill:#000000;fill-opacity:1;fill-rule:evenodd;stroke:#000000;stroke-width:1pt;stroke-opacity:1"
         d="M 0,0 5,-5 -12.5,0 5,5 Z"
         id="path2489" />
    </marker>
    <marker
       style="overflow:visible"
       id="marker2403"
       refX="0"
       refY="0"
       orient="auto"
       inkscape:stockid="Arrow1Mend"
       inkscape:isstock="true">
      <path
         transform="matrix(-0.4,0,0,-0.4,-4,0)"
         style="fill:#000000;fill-opacity:1;fill-rule:evenodd;stroke:#000000;stroke-width:1pt;stroke-opacity:1"
         d="M 0,0 5,-5 -12.5,0 5,5 Z"
         id="path2401" />
    </marker>
    <marker
       style="overflow:visible"
       id="Arrow1Mend"
       refX="0"
       refY="0"
       orient="auto"
       inkscape:stockid="Arrow1Mend"
       inkscape:isstock="true">
      <path
         transform="matrix(-0.4,0,0,-0.4,-4,0)"
         style="fill:#000000;fill-opacity:1;fill-rule:evenodd;stroke:#000000;stroke-width:1pt;stroke-opacity:1"
         d="M 0,0 5,-5 -12.5,0 5,5 Z"
         id="path1084" />
    </marker>
    <marker
       style="overflow:visible"
       id="marker2123"
       refX="0"
       refY="0"
       orient="auto"
       inkscape:stockid="Arrow1Lend"
       inkscape:isstock="true">
      <path
         transform="matrix(-0.8,0,0,-0.8,-10,0)"
         style="fill:#000000;fill-opacity:1;fill-rule:evenodd;stroke:#000000;stroke-width:1pt;stroke-opacity:1"
         d="M 0,0 5,-5 -12.5,0 5,5 Z"
         id="path2121" />
    </marker>
    <marker
       style="overflow:visible"
       id="marker1985"
       refX="0"
       refY="0"
       orient="auto"
       inkscape:stockid="Arrow1Lend"
       inkscape:isstock="true">
      <path
         transform="matrix(-0.8,0,0,-0.8,-10,0)"
         style="fill:#000000;fill-opacity:1;fill-rule:evenodd;stroke:#000000;stroke-width:1pt;stroke-opacity:1"
         d="M 0,0 5,-5 -12.5,0 5,5 Z"
         id="path1983" />
    </marker>
    <marker
       style="overflow:visible"
       id="marker1939"
       refX="0"
       refY="0"
       orient="auto"
       inkscape:stockid="Arrow1Lend"
       inkscape:isstock="true">
      <path
         transform="matrix(-0.8,0,0,-0.8,-10,0)"
         style="fill:#000000;fill-opacity:1;fill-rule:evenodd;stroke:#000000;stroke-width:1pt;stroke-opacity:1"
         d="M 0,0 5,-5 -12.5,0 5,5 Z"
         id="path1937" />
    </marker>
    <marker
       style="overflow:visible"
       id="marker1899"
       refX="0"
       refY="0"
       orient="auto"
       inkscape:stockid="Arrow1Lend"
       inkscape:isstock="true">
      <path
         transform="matrix(-0.8,0,0,-0.8,-10,0)"
         style="fill:#000000;fill-opacity:1;fill-rule:evenodd;stroke:#000000;stroke-width:1pt;stroke-opacity:1"
         d="M 0,0 5,-5 -12.5,0 5,5 Z"
         id="path1897" />
    </marker>
    <marker
       style="overflow:visible"
       id="marker1523"
       refX="0"
       refY="0"
       orient="auto"
       inkscape:stockid="Arrow1Lend"
       inkscape:isstock="true">
      <path
         transform="matrix(-0.8,0,0,-0.8,-10,0)"
         style="fill:#ffffff;fill-opacity:1;fill-rule:evenodd;stroke:#000000;stroke-width:1pt;stroke-opacity:1"
         d="M 0,0 5,-5 -12.5,0 5,5 Z"
         id="path1521" />
    </marker>
    <marker
       style="overflow:visible"
       id="Arrow1Lend"
       refX="0"
       refY="0"
       orient="auto"
       inkscape:stockid="Arrow1Lend"
       inkscape:isstock="true">
      <path
         transform="matrix(-0.8,0,0,-0.8,-10,0)"
         style="fill:#ffffff;fill-opacity:1;fill-rule:evenodd;stroke:#000000;stroke-width:1pt;stroke-opacity:1"
         d="M 0,0 5,-5 -12.5,0 5,5 Z"
         id="path1078" />
    </marker>
  </defs>
  <sodipodi:namedview
     id="base"
     pagecolor="#ffffff"
     bordercolor="#666666"
     borderopacity="1.0"
     inkscape:pageopacity="0.0"
     inkscape:pageshadow="2"
     inkscape:zoom="0.1767767"
     inkscape:cx="702.02962"
     inkscape:cy="2095.0298"
     inkscape:document-units="mm"
     inkscape:current-layer="layer1"
     inkscape:document-rotation="0"
     showgrid="false"
     inkscape:window-width="1920"
     inkscape:window-height="1017"
     inkscape:window-x="-8"
     inkscape:window-y="-8"
     inkscape:window-maximized="1" />
  <metadata
     id="metadata5">
    <rdf:RDF>
      <cc:Work
         rdf:about="">
        <dc:format>image/svg+xml</dc:format>
        <dc:type
           rdf:resource="http://purl.org/dc/dcmitype/StillImage" />
        <dc:title></dc:title>
      </cc:Work>
    </rdf:RDF>
  </metadata>
  <g
     inkscape:label="Layer 1"
     inkscape:groupmode="layer"
     id="layer1"
     transform="translate(5045.9072,302.38681)">
    <text
       xml:space="preserve"
       style="font-style:normal;font-weight:normal;font-size:10.5833px;line-height:1.25;font-family:sans-serif;fill:#000000;fill-opacity:1;stroke:none;stroke-width:0.264583"
       x="-3129.1975"
       y="-5.6278062"
       id="text1689"><tspan
         sodipodi:role="line"
         id="tspan1687"
         x="-3129.1975"
         y="-5.6278062"
         style="stroke-width:0.264583" /></text>
    <rect
       style="fill:none;fill-opacity:1;stroke:#000000;stroke-width:0.852588;stroke-linecap:round;stroke-linejoin:round;stroke-miterlimit:4;stroke-dasharray:none;stroke-dashoffset:0;stroke-opacity:1;paint-order:stroke fill markers"
       id="rect1733"
       width="283.34348"
       height="101.95068"
       x="-4711.3438"
       y="-226.77678" />
    <text
       xml:space="preserve"
       style="font-style:normal;font-weight:normal;font-size:29.503px;line-height:1.25;font-family:sans-serif;fill:#000000;fill-opacity:1;stroke:none;stroke-width:0.737575"
       x="-4685.6431"
       y="-170.58897"
       id="text1737"><tspan
         sodipodi:role="line"
         id="tspan1735"
         x="-4685.6431"
         y="-170.58897"
         style="stroke-width:0.737575">schema.prisma</tspan></text>
    <path
       style="fill:none;stroke:#000000;stroke-width:3.41035;stroke-linecap:butt;stroke-linejoin:miter;stroke-miterlimit:4;stroke-dasharray:none;stroke-opacity:1;marker-end:url(#marker2597)"
       d="M -4581.7915,-108.42251 V 5.5919774"
       id="path1751" />
    <path
       style="opacity:0.587097;fill:#000000;stroke-width:0.121646"
       d="m -4575.0757,-30.65481 c -0.1338,-0.07474 -0.2662,-0.15524 -0.2941,-0.178892 -0.028,-0.02365 -0.1375,-0.515998 -0.2434,-1.094105 -0.1192,-0.650871 -0.262,-1.088075 -0.375,-1.148202 -0.6108,-0.325249 -1.6536,-0.719983 -1.902,-0.719983 -0.1602,0 -0.6299,0.246336 -1.0436,0.547412 -0.4139,0.301076 -0.8658,0.547411 -1.0046,0.547411 -0.2963,0 -2.132,-1.791969 -2.132,-2.081298 0,-0.104714 0.2108,-0.48669 0.4685,-0.848838 0.8193,-1.151292 0.8093,-1.092347 0.3721,-2.188064 -0.2139,-0.535827 -0.4768,-1.020273 -0.5843,-1.076548 -0.1075,-0.05628 -0.5936,-0.168645 -1.0802,-0.249712 -0.4866,-0.08106 -0.9655,-0.228258 -1.0644,-0.327094 -0.1363,-0.136264 -0.1797,-0.496493 -0.1797,-1.490275 0,-1.574205 0.029,-1.614555 1.3319,-1.822277 0.4983,-0.07949 0.9721,-0.199345 1.0528,-0.266355 0.081,-0.06701 0.3217,-0.555717 0.5355,-1.08601 l 0.3887,-0.964172 -0.2795,-0.459851 c -0.1537,-0.252917 -0.3124,-0.48722 -0.3527,-0.520672 -0.3019,-0.251276 -0.6231,-0.899023 -0.5636,-1.136539 0.092,-0.365974 1.8141,-2.026426 2.1012,-2.02576 0.1241,2.44e-4 0.5083,0.214705 0.8535,0.476485 1.0738,0.814023 1.0357,0.80732 2.114,0.372634 0.5268,-0.212357 1.0129,-0.45236 1.0801,-0.53334 0.067,-0.08098 0.1846,-0.554779 0.2607,-1.052888 0.1982,-1.294997 0.2482,-1.331415 1.8276,-1.331415 0.9938,0 1.354,0.04345 1.4902,0.179705 0.099,0.09884 0.2461,0.577818 0.3271,1.064409 0.081,0.486592 0.1908,0.967731 0.2438,1.0692 0.142,0.271463 1.9824,0.994923 2.2614,0.888922 0.126,-0.04787 0.5498,-0.322656 0.9419,-0.610637 0.3921,-0.287979 0.8039,-0.523599 0.9153,-0.523599 0.2914,0 2.0821,1.838373 2.0821,2.137587 0,0.13567 -0.2464,0.585212 -0.5474,0.998978 -0.3011,0.413767 -0.5475,0.883404 -0.5475,1.043638 0,0.248391 0.3948,1.291188 0.7201,1.902037 0.061,0.112979 0.498,0.255813 1.1507,0.375425 1.3895,0.254599 1.4276,0.30691 1.3856,1.901501 -0.024,0.909508 -0.082,1.291174 -0.2152,1.423125 -0.1003,0.09917 -0.5656,0.239841 -1.034,0.312607 -1.231,0.191272 -1.2268,0.188609 -1.5271,0.948828 -0.151,0.382365 -0.3209,0.747212 -0.3773,0.810773 -0.2437,0.274223 -0.085,0.839131 0.4447,1.581142 0.301,0.421921 0.5474,0.887082 0.5474,1.033692 0,0.342462 -1.7496,2.074656 -2.0954,2.074656 -0.1352,0 -0.5911,-0.246335 -1.013,-0.547411 -0.742,-0.529488 -1.3069,-0.688381 -1.5811,-0.444731 -0.064,0.05647 -0.431,0.227304 -0.8164,0.379623 -0.7609,0.30068 -0.7264,0.242492 -0.9752,1.643419 -0.1249,0.703368 -0.2025,0.874651 -0.4538,1.001794 -0.3766,0.190562 -2.2799,0.20051 -2.6144,0.01367 z m 3.1219,-6.459871 c 0.3789,-0.186084 0.9109,-0.560314 1.1822,-0.831619 0.2713,-0.271306 0.6456,-0.803318 0.8317,-1.18225 0.2979,-0.606677 0.3383,-0.826994 0.3383,-1.844613 0,-1.420478 -0.2609,-2.042622 -1.2754,-3.041174 -0.8765,-0.862773 -1.6393,-1.157267 -2.9822,-1.151382 -0.7858,0.0035 -1.1049,0.06519 -1.6568,0.32056 -0.9581,0.443267 -1.62,1.087439 -2.0825,2.027025 -0.3535,0.718081 -0.3964,0.917372 -0.3965,1.844191 -1e-4,0.928614 0.043,1.125353 0.3988,1.850133 0.4774,0.970127 1.3135,1.770762 2.2381,2.143394 0.9622,0.387679 2.4619,0.328529 3.4043,-0.134265 z m -26.2842,-2.690638 c -0.2096,-0.223082 -0.3287,-0.615885 -0.5052,-1.665716 -0.127,-0.755588 -0.3005,-1.441538 -0.3856,-1.524336 -0.085,-0.0828 -0.5926,-0.32335 -1.1278,-0.534559 -0.5353,-0.211209 -1.028,-0.428635 -1.0948,-0.483166 -0.1263,-0.10287 -0.4673,-0.161126 -0.8015,-0.136896 -0.1063,0.0077 -0.6872,0.369825 -1.2911,0.804713 -1.5058,1.084556 -1.5151,1.083303 -3.0396,-0.406363 -1.2164,-1.188664 -1.4976,-1.54256 -1.4976,-1.884657 0,-0.09801 0.3673,-0.689717 0.8162,-1.314915 0.646,-0.899562 0.8149,-1.225717 0.8101,-1.563274 -0.01,-0.515659 -0.8293,-2.538565 -1.1422,-2.811309 -0.1298,-0.113102 -0.7784,-0.284316 -1.543,-0.40735 -1.9518,-0.314017 -2.0011,-0.378596 -1.9745,-2.582252 0.02,-1.635134 0.1098,-2.09155 0.4549,-2.307033 0.1182,-0.07383 0.7878,-0.228562 1.4879,-0.343815 0.7003,-0.115253 1.3911,-0.284278 1.5355,-0.375625 0.1459,-0.09237 0.3558,-0.451556 0.473,-0.809327 0.1158,-0.353781 0.3399,-0.901441 0.4979,-1.217027 0.3938,-0.786546 0.3646,-1.042519 -0.2059,-1.806778 -0.9841,-1.318203 -1.2416,-1.795201 -1.1551,-2.139825 0.045,-0.181388 0.6382,-0.872922 1.3548,-1.580852 1.5825,-1.563535 1.5793,-1.563057 3.128,-0.467704 0.6374,0.450832 1.2454,0.790707 1.4144,0.790707 0.3307,0 2.6636,-0.917026 2.8918,-1.136704 0.08,-0.07733 0.2582,-0.766724 0.3956,-1.53199 0.3573,-1.991611 0.3073,-1.953892 2.5895,-1.953892 0.9964,0 1.9099,0.0526 2.0301,0.117 0.3083,0.164959 0.4604,0.615774 0.6793,2.011826 0.1049,0.66906 0.257,1.279735 0.3379,1.357056 0.2349,0.224316 2.5658,1.136704 2.904,1.136704 0.1839,0 0.7517,-0.317853 1.4127,-0.790707 1.5392,-1.101126 1.5498,-1.099625 3.1401,0.447703 0.7001,0.681124 1.3057,1.369426 1.346,1.529559 0.094,0.376034 -0.035,0.646475 -0.864,1.801382 -0.3752,0.522858 -0.7129,1.07311 -0.7505,1.222765 -0.043,0.170253 0.092,0.628391 0.36,1.223932 0.2354,0.523515 0.466,1.105517 0.5124,1.29335 0.1203,0.487834 0.4426,0.641521 1.8182,0.86727 1.5901,0.260926 1.6144,0.26998 1.8261,0.679325 0.2542,0.49173 0.2566,3.391232 0.01,3.881419 -0.2202,0.42581 -0.2762,0.447107 -1.8046,0.686333 -1.3908,0.217705 -1.7203,0.372169 -1.8439,0.864405 -0.047,0.18675 -0.2724,0.745013 -0.5015,1.240588 -0.229,0.495576 -0.4163,0.999361 -0.4163,1.119521 0,0.120161 0.2563,0.591436 0.5696,1.047279 0.3133,0.455844 0.6965,1.014355 0.8515,1.241135 0.4909,0.717755 0.4132,0.893292 -1.0372,2.343652 -1.6518,1.651863 -1.6705,1.654886 -3.2417,0.524705 -0.61,-0.438716 -1.2216,-0.786923 -1.3822,-0.786923 -0.4671,0 -2.8144,0.987134 -2.9501,1.240635 -0.067,0.126065 -0.2026,0.705925 -0.3002,1.28858 -0.2553,1.52341 -0.271,1.574844 -0.5628,1.84671 -0.2417,0.22526 -0.4245,0.246661 -2.1061,0.246661 -1.7864,0 -1.8496,-0.0087 -2.1157,-0.29192 z m 4.166,-8.830874 c 2.704,-1.026583 4.4036,-3.812589 3.9724,-6.511765 -0.3693,-2.311988 -1.6981,-4.016141 -3.7884,-4.858498 -0.804,-0.324017 -1.0299,-0.360329 -2.2326,-0.358991 -1.1137,0.0017 -1.4606,0.04945 -2.068,0.287169 -1.8418,0.720897 -3.228,2.200299 -3.7597,4.01256 -0.2769,0.943806 -0.2537,2.587042 0.05,3.57193 0.6064,1.963629 2.278,3.514337 4.3568,4.041806 0.9655,0.244976 2.5616,0.160213 3.4688,-0.184211 z m 18.8417,-8.861199 c -0.085,-0.05397 -0.2402,-0.559511 -0.3447,-1.12337 -0.1086,-0.586512 -0.2766,-1.107324 -0.3927,-1.217103 -0.1116,-0.105542 -0.5965,-0.341803 -1.0778,-0.525007 -0.99,-0.376954 -0.9779,-0.37958 -2.0736,0.446194 -0.4685,0.353133 -0.7116,0.461574 -0.9185,0.409651 -0.3413,-0.08566 -2.0328,-1.801953 -2.0328,-2.062606 0,-0.102132 0.2737,-0.583008 0.6082,-1.068617 0.3345,-0.485608 0.6082,-0.931426 0.6082,-0.990707 0,-0.112149 -0.4914,-1.266314 -0.7645,-1.795243 -0.1328,-0.257115 -0.309,-0.33233 -1.1404,-0.486597 -0.5409,-0.10035 -1.0726,-0.257593 -1.1815,-0.349416 -0.1616,-0.136278 -0.198,-0.422475 -0.198,-1.55721 v -1.390246 l 0.3954,-0.161583 c 0.2174,-0.08886 0.704,-0.198729 1.0812,-0.244138 0.3772,-0.04544 0.7689,-0.147822 0.8704,-0.227573 0.1551,-0.121929 0.687,-1.260722 0.8929,-1.912039 0.032,-0.102089 -0.2182,-0.594075 -0.5566,-1.093299 -0.3385,-0.499233 -0.6153,-0.991764 -0.6153,-1.094527 0,-0.280297 1.8476,-2.066664 2.1376,-2.066664 0.1357,0 0.5924,0.251581 1.015,0.559076 0.6255,0.455111 0.8392,0.548265 1.1496,0.50098 0.5252,-0.08006 1.7993,-0.638094 1.9106,-0.836823 0.05,-0.08964 0.1536,-0.518664 0.23,-0.953407 0.076,-0.434726 0.1651,-0.880322 0.1973,-0.990212 0.1033,-0.352315 0.7035,-0.49642 1.8792,-0.451173 1.3213,0.0509 1.3691,0.09191 1.587,1.361217 0.082,0.479137 0.1871,0.944377 0.2329,1.033856 0.1018,0.198875 1.3748,0.756263 1.9136,0.837813 0.3224,0.04885 0.5317,-0.04024 1.1774,-0.500973 0.4319,-0.308201 0.9006,-0.560354 1.0416,-0.560354 0.3296,0 2.0722,1.765479 2.0722,2.099386 0,0.133013 -0.2464,0.587041 -0.5474,1.008953 -0.3011,0.421929 -0.5475,0.90029 -0.5475,1.063041 0,0.330522 0.6882,1.927624 0.8838,2.050917 0.069,0.04357 0.5413,0.140975 1.0495,0.216566 0.5083,0.07562 1.0066,0.219856 1.1072,0.320581 0.2361,0.236048 0.2665,2.755283 0.036,2.98572 -0.081,0.081 -0.6225,0.234291 -1.2033,0.34072 -0.6545,0.119942 -1.0929,0.262836 -1.1531,0.375872 -0.3243,0.60885 -0.72,1.65321 -0.72,1.89977 0,0.158991 0.2464,0.623694 0.5473,1.032689 0.3012,0.408978 0.5475,0.862026 0.5475,1.006778 0,0.321588 -1.7903,2.142997 -2.1063,2.142997 -0.1186,0 -0.5005,-0.212184 -0.8489,-0.471533 -1.095,-0.815133 -1.0653,-0.810231 -2.1699,-0.358572 -0.5386,0.220163 -1.0225,0.483323 -1.0755,0.58479 -0.053,0.101475 -0.1628,0.582615 -0.2439,1.069196 -0.081,0.486597 -0.2282,0.965573 -0.3271,1.064413 -0.1364,0.136329 -0.4932,0.179257 -1.4787,0.177842 -0.7144,-8.53e-4 -1.3686,-0.04604 -1.4537,-0.100026 z m 2.8202,-6.238232 c 1.0178,-0.334095 1.9929,-1.183204 2.4666,-2.147865 0.302,-0.614955 0.3419,-0.831469 0.3419,-1.852008 0,-0.996198 -0.044,-1.250568 -0.3225,-1.843611 -0.4009,-0.855009 -1.1746,-1.624069 -2.0496,-2.037276 -0.5743,-0.271208 -0.8326,-0.315866 -1.8247,-0.315423 -1.0155,4.52e-4 -1.2389,0.04135 -1.8421,0.337199 -0.8375,0.410776 -1.6,1.213241 -2.0284,2.134743 -0.4324,0.929901 -0.4488,2.445043 -0.037,3.362624 0.9469,2.106906 3.1196,3.075872 5.2953,2.361617 z"
       id="path1819" />
    <text
       xml:space="preserve"
       style="font-style:normal;font-weight:normal;font-size:20.2308px;line-height:1.25;font-family:sans-serif;fill:#000000;fill-opacity:1;stroke:none;stroke-width:0.505771"
       x="-4554.5801"
       y="-47.378643"
       id="text1823"><tspan
         sodipodi:role="line"
         id="tspan1821"
         x="-4554.5801"
         y="-47.378643"
         style="stroke-width:0.505771">typegraphql-prisma</tspan></text>
    <rect
       style="opacity:1;fill:none;fill-opacity:1;stroke:#000000;stroke-width:0.852588;stroke-linecap:round;stroke-linejoin:round;stroke-miterlimit:4;stroke-dasharray:none;stroke-dashoffset:0;stroke-opacity:1;paint-order:stroke fill markers"
       id="rect1825"
       width="262.14554"
       height="65.536385"
       x="-4699.2891"
       y="20.309669" />
    <text
       xml:space="preserve"
       style="font-style:normal;font-weight:normal;font-size:18.7381px;line-height:1.25;font-family:sans-serif;fill:#000000;fill-opacity:1;stroke:none;stroke-width:0.468455"
       x="-4690.4756"
       y="54.970547"
       id="text1829"><tspan
         sodipodi:role="line"
         id="tspan1827"
         x="-4690.4756"
         y="54.970547"
         style="stroke-width:0.468455">CRUD resolvers and types</tspan></text>
    <path
       style="fill:none;fill-opacity:1;stroke:#000000;stroke-width:4.26294;stroke-linecap:butt;stroke-linejoin:miter;stroke-miterlimit:4;stroke-dasharray:none;stroke-opacity:1"
       d="m -4710.9849,142.05566 107.2224,160.83359 v 134.78749 h 53.6112 V 302.88925 l 107.2224,-160.83359 z"
       id="path1837"
       sodipodi:nodetypes="ccccccc" />
    <rect
       style="opacity:1;fill:none;fill-opacity:1;stroke:#000000;stroke-width:0.852588;stroke-linecap:round;stroke-linejoin:round;stroke-miterlimit:4;stroke-dasharray:none;stroke-dashoffset:0;stroke-opacity:1;paint-order:stroke fill markers"
       id="rect1839"
       width="378.99463"
       height="126.33154"
       x="-4778.582"
       y="515.71967" />
    <text
       xml:space="preserve"
       style="font-style:normal;font-weight:normal;font-size:58.5445px;line-height:1.25;font-family:sans-serif;fill:#000000;fill-opacity:1;stroke:none;stroke-width:1.46361"
       x="-4722.4214"
       y="592.90259"
       id="text1843"><tspan
         sodipodi:role="line"
         id="tspan1841"
         x="-4722.4214"
         y="592.90259"
         style="stroke-width:1.46361">clear-gql</tspan></text>
    <rect
       style="opacity:1;fill:none;fill-opacity:1;stroke:#000000;stroke-width:0.852588;stroke-linecap:round;stroke-linejoin:round;stroke-miterlimit:4;stroke-dasharray:none;stroke-dashoffset:0;stroke-opacity:1;paint-order:stroke fill markers"
       id="rect1845"
       width="252.66309"
       height="63.165771"
       x="-4975.1357"
       y="21.494976" />
    <text
       xml:space="preserve"
       style="font-style:normal;font-weight:normal;font-size:25.0416px;line-height:1.25;font-family:sans-serif;fill:#000000;fill-opacity:1;stroke:none;stroke-width:0.626042"
       x="-4958.8081"
       y="52.349091"
       id="text1849"><tspan
         sodipodi:role="line"
         id="tspan1847"
         x="-4958.8081"
         y="52.349091"
         style="stroke-width:0.626042">CustomResolvers</tspan></text>
    <rect
       style="opacity:1;fill:none;fill-opacity:1;stroke:#000000;stroke-width:0.852588;stroke-linecap:round;stroke-linejoin:round;stroke-miterlimit:4;stroke-dasharray:none;stroke-dashoffset:0;stroke-opacity:1;paint-order:stroke fill markers"
       id="rect1857"
       width="252.66309"
       height="63.165771"
       x="-4414.9385"
       y="21.494976" />
    <text
       xml:space="preserve"
       style="font-style:normal;font-weight:normal;font-size:29.3713px;line-height:1.25;font-family:sans-serif;fill:#000000;fill-opacity:1;stroke:none;stroke-width:0.734285"
       x="-4369.2017"
       y="26.996542"
       id="text1867"><tspan
         sodipodi:role="line"
         id="tspan1865"
         x="-4369.2017"
         y="26.996542"
         style="stroke-width:0.734285" /></text>
    <text
       xml:space="preserve"
       style="font-style:normal;font-weight:normal;font-size:13.632px;line-height:1.25;font-family:sans-serif;fill:#000000;fill-opacity:1;stroke:none;stroke-width:0.340802"
       x="-4289.6177"
       y="38.57616"
       id="text1871"><tspan
         sodipodi:role="line"
         id="tspan1869"
         x="-4289.6177"
         y="38.57616"
         style="text-align:center;text-anchor:middle;stroke-width:0.340802">CustomModelsEnhanceMap</tspan><tspan
         sodipodi:role="line"
         x="-4289.6177"
         y="55.616196"
         style="text-align:center;text-anchor:middle;stroke-width:0.340802"
         id="tspan1873">and</tspan><tspan
         sodipodi:role="line"
         x="-4289.6177"
         y="72.656227"
         style="text-align:center;text-anchor:middle;stroke-width:0.340802"
         id="tspan1875">CustomResolversEnhanceMap</tspan></text>
    <text
       xml:space="preserve"
       style="font-style:normal;font-weight:normal;font-size:28.6607px;line-height:1.25;font-family:sans-serif;fill:#000000;fill-opacity:1;stroke:none;stroke-width:0.716517"
       x="-4656.9268"
       y="185.38808"
       id="text1879"><tspan
         sodipodi:role="line"
         id="tspan1877"
         x="-4656.9268"
         y="185.38808"
         style="stroke-width:0.716517">typegraphql</tspan></text>
    <path
       style="fill:none;stroke:#000000;stroke-width:3.41035;stroke-linecap:butt;stroke-linejoin:miter;stroke-miterlimit:4;stroke-dasharray:none;stroke-opacity:1;marker-end:url(#marker2403)"
       d="m -4844.0187,95.688132 c 179.3318,7.786398 217.9398,30.926798 227.4605,35.092088"
       id="path1885"
       sodipodi:nodetypes="cc" />
    <path
       style="fill:none;stroke:#000000;stroke-width:3.41035;stroke-linecap:butt;stroke-linejoin:miter;stroke-miterlimit:4;stroke-dasharray:none;stroke-opacity:1;marker-end:url(#marker2491)"
       d="m -4291.1587,103.02557 c -201.0344,-15.612773 -244.5647,19.22109 -258.0278,29.29502"
       id="path1887"
       sodipodi:nodetypes="cc" />
    <path
       style="fill:none;stroke:#000000;stroke-width:3.41035;stroke-linecap:butt;stroke-linejoin:miter;stroke-miterlimit:4.1;stroke-dasharray:none;stroke-opacity:1;marker-end:url(#Arrow1Mend)"
       d="m -4592.3126,93.774018 2.8712,37.006202"
       id="path1889" />
    <path
       sodipodi:type="star"
       style="opacity:1;fill:#dad300;fill-opacity:1;stroke:#000000;stroke-width:1.70518;stroke-linecap:round;stroke-linejoin:round;stroke-miterlimit:4;stroke-dasharray:none;stroke-dashoffset:0;stroke-opacity:1;paint-order:stroke fill markers"
       id="path2107"
       sodipodi:sides="5"
       sodipodi:cx="-4751.979"
       sodipodi:cy="550.79694"
       sodipodi:r1="28.091795"
       sodipodi:r2="14.045897"
       sodipodi:arg1="0.52359878"
       sodipodi:arg2="1.1519173"
       inkscape:flatsided="false"
       inkscape:rounded="0"
       inkscape:randomized="0"
       d="m -4727.6508,564.84283 -18.6152,-1.21433 -11.5536,14.64636 -4.5975,-18.07938 -17.4998,-6.46215 15.7738,-9.95934 0.7381,-18.64019 14.3463,11.92418 17.956,-5.05812 -6.9074,17.32888 z"
       inkscape:transform-center-x="1.8047556"
       inkscape:transform-center-y="0.90737358" />
    <path
       sodipodi:type="star"
       style="opacity:1;fill:#dad300;fill-opacity:1;stroke:#000000;stroke-width:2;stroke-linecap:round;stroke-linejoin:round;stroke-miterlimit:4;stroke-dasharray:none;stroke-dashoffset:0;stroke-opacity:1;paint-order:stroke fill markers"
       id="path2109"
       sodipodi:sides="5"
       sodipodi:cx="-4406.3711"
       sodipodi:cy="576.26245"
       sodipodi:r1="32.948856"
       sodipodi:r2="16.474428"
       sodipodi:arg1="0.52359878"
       sodipodi:arg2="1.1519173"
       inkscape:flatsided="false"
       inkscape:rounded="0"
       inkscape:randomized="0"
       d="m -4377.8365,592.73688 -21.8338,-1.42429 -13.5512,17.17871 -5.3925,-21.2053 -20.5255,-7.57946 18.5011,-11.6813 0.8658,-21.86307 16.8267,13.98586 21.0606,-5.93267 -8.1016,20.32504 z"
       inkscape:transform-center-x="-1.3948166"
       inkscape:transform-center-y="1.321159"
       transform="matrix(0.53939442,0.66027246,-0.66027246,0.53939442,-1673.039,3120.4954)" />
    <path
       sodipodi:type="star"
       style="opacity:1;fill:#dad300;fill-opacity:1;stroke:#000000;stroke-width:2;stroke-linecap:round;stroke-linejoin:round;stroke-miterlimit:4;stroke-dasharray:none;stroke-dashoffset:0;stroke-opacity:1;paint-order:stroke fill markers"
       id="path2111"
       sodipodi:sides="5"
       sodipodi:cx="-4406.3711"
       sodipodi:cy="576.26245"
       sodipodi:r1="32.948856"
       sodipodi:r2="16.474428"
       sodipodi:arg1="0.52359878"
       sodipodi:arg2="1.1519173"
       inkscape:flatsided="false"
       inkscape:rounded="0"
       inkscape:randomized="0"
       d="m -4377.8365,592.73688 -21.8338,-1.42429 -13.5512,17.17871 -5.3925,-21.2053 -20.5255,-7.57946 18.5011,-11.6813 0.8658,-21.86307 16.8267,13.98586 21.0606,-5.93267 -8.1016,20.32504 z"
       inkscape:transform-center-x="0.30717037"
       inkscape:transform-center-y="2.3886531"
       transform="matrix(0.83970815,-0.14763564,0.14763564,0.83970815,-813.95879,-521.37254)" />
    <path
       style="fill:none;stroke:#000000;stroke-width:2.55776;stroke-linecap:butt;stroke-linejoin:miter;stroke-miterlimit:4;stroke-dasharray:none;stroke-opacity:1;marker-end:url(#marker2123)"
       d="m -4578.6013,449.2228 v 52.46789"
       id="path2119" />
  </g>
</svg>
